<?xml version="1.0" encoding="UTF-8"?> <!-- Generator: Adobe Illustrator 23.0.3, SVG Export Plug-In . SVG Version: 6.00 Build 0) --> <svg xmlns="http://www.w3.org/2000/svg" xmlns:xlink="http://www.w3.org/1999/xlink" id="Layer_1" x="0px" y="0px" viewBox="0 0 349 83" style="enable-background:new 0 0 349 83;" xml:space="preserve"> <style type="text/css"> .st0{fill-rule:evenodd;clip-rule:evenodd;fill:#FFFFFF;} </style> <g id="Styles"> <g id="Logo" transform="translate(-801.000000, -378.000000)"> <g id="primary-logo-with-tagline" transform="translate(801.000000, 378.000000)"> <path id="ActinTime" class="st0" d="M242.9,82l-0.4-3.1h-5.4l-1.5,3.1h-2.9l7.2-14.7h3.7l2.2,14.7H242.9z M241.4,69.5l-3.3,7.1 h4.1L241.4,69.5z M255.2,71.5l-0.6,2.1c-0.6-0.2-1.5-0.3-2-0.3c-1.5,0-2,0.4-2.3,1.9l-0.6,3.6c0,0.1,0,0.3,0,0.4 c0,0.4,0.2,0.7,0.8,0.7c0.9,0,2.3-0.4,3.1-0.7l0.3,2.1c-1,0.5-2.3,0.8-3.6,0.8c-2.3,0-3.2-0.9-3.2-2.7c0-0.4,0-0.7,0.1-1.1 l0.6-3.6c0.5-3,2-3.8,4.9-3.8C253.5,71.1,254.6,71.3,255.2,71.5z M258.7,82.2c-1.7,0-2.4-1.1-2.2-2.6l1.1-6.2h-1.7l0.4-2.1h1.7 l0.5-2.8l2.7-0.4l-0.5,3.1h2.7l-0.4,2.1h-2.7l-1.1,6.1c-0.1,0.4,0,0.6,0.4,0.6c0.5,0,1.2-0.2,1.8-0.5l0.6,1.8 C261.1,81.9,259.9,82.2,258.7,82.2z M269.5,69.9l0.5-3l2.7-0.4l-0.5,3L269.5,69.9z M267.4,82l1.8-10.5l2.7-0.4L270,82H267.4z M279,82l1.3-7.6c0-0.1,0-0.2,0-0.3c0-0.3-0.1-0.5-0.6-0.5c-0.7,0-2.2,0.7-3.2,1.3l-1.3,7.1h-2.6l1.8-10.5l2.3-0.4l0,1.3 c1.4-0.8,3.1-1.3,4.3-1.3c1.5,0,2,1,2,2.1c0,0.4,0,0.7-0.1,1.1l-1.4,7.7H279z M296.5,69.7L294.4,82h-2.7l2.2-12.3h-4.1l0.4-2.4 h11l-0.4,2.4H296.5z M302.3,69.9l0.5-3l2.7-0.4l-0.5,3L302.3,69.9z M300.2,82l1.8-10.5l2.7-0.4L302.8,82H300.2z M318.1,82 l1.3-7.6c0-0.1,0-0.2,0-0.3c0-0.3-0.1-0.5-0.5-0.5c-0.7,0-2.2,0.7-3.2,1.3l-1.3,7.1h-2.6l1.3-7.6c0-0.1,0-0.2,0-0.3 c0-0.3-0.1-0.5-0.5-0.5c-0.7,0-2.2,0.7-3.2,1.3l-1.3,7.1h-2.6l1.8-10.5l2.3-0.4l0,1.3c1.4-0.8,3.1-1.3,4.3-1.3 c1.1,0,1.7,0.6,1.9,1.4c1.5-0.9,3.2-1.4,4.4-1.4c1.5,0,2,1,2,2.1c0,0.4,0,0.7-0.1,1.1l-1.4,7.7H318.1z M326.2,78.4l-0.1,0.5 c-0.1,0.6-0.1,1.1,0.8,1.1c1.1,0,2.7-0.5,4.1-1.2l0.6,2c-1.3,0.8-3.3,1.4-5.1,1.4c-2.8,0-3.4-1.6-3-3.8l0.6-3.3 c0.5-2.5,1.6-4.1,4.9-4.1c2,0,3.4,1.1,3.4,2.8c0,1.9-1.3,3-4.2,3.9C326.9,78.2,326.7,78.2,326.2,78.4z M328.2,75.5 c1.2-0.4,1.7-0.8,1.7-1.5c0-0.5-0.4-0.8-1.1-0.8c-1.2,0-1.8,0.7-2,1.8l-0.2,1.1C327,75.9,327.1,75.8,328.2,75.5z"></path> <path id="Combined-Shape" class="st0" d="M242.2,47.9c3.8,0,8.6-2.5,12.5-5.9l3.2-18c-2.4-0.6-4.8-0.9-7.2-0.9 c-5.5,0-7.8,1.9-9,8.5l-2.1,12.2c-0.1,0.7-0.2,1.2-0.2,1.8C239.5,47.4,240.4,47.9,242.2,47.9z M253.7,49.5l0.4-3.4 c-3.5,2.9-7.9,5-12.3,5c-3.8,0-5.9-1.4-5.9-5c0-0.7,0.1-1.4,0.2-2.2l2.3-12.8c1.4-8.1,5.1-11,12.7-11c2,0,5.4,0.4,7.3,0.9 l2.1-11.8c0-0.3,0.3-0.7,0.8-0.8l1.9-0.3c0.4-0.1,0.9,0.1,0.7,0.8l-7.2,40.6c0,0.3-0.1,0.9-0.8,0.9h-1.8 C253.9,50.3,253.6,50.2,253.7,49.5z M272,47.9c3.7,0,8.3-2.5,12.1-5.9l3.2-18c-1.7-0.4-4.5-0.9-6.9-0.9c-5.5,0-7.6,2-8.8,8.5 l-2.1,12.2c-0.1,0.7-0.2,1.2-0.2,1.8C269.3,47.4,270.2,47.9,272,47.9z M283.1,49.5l0.4-3.4c-3.4,2.9-7.5,5-11.8,5 c-3.7,0-5.7-1.4-5.7-5c0-0.7,0.1-1.4,0.2-2.2l2.2-12.8c1.4-7.8,4.5-11,12.4-11c2.7,0,6.7,0.7,10.1,2l-4.8,27.5 c0,0.3-0.1,0.9-0.8,0.9h-1.7C283.3,50.3,283,50.2,283.1,49.5z M321.2,47.9c3.7,0,8.3-2.5,12.1-5.9l3.2-18 c-1.7-0.4-4.5-0.9-6.9-0.9c-5.5,0-7.6,2-8.8,8.5l-2.1,12.2c-0.1,0.7-0.2,1.2-0.2,1.8C318.4,47.4,319.4,47.9,321.2,47.9z M332.2,49.5l0.4-3.4c-3.4,2.9-7.5,5-11.8,5c-3.7,0-5.7-1.4-5.7-5c0-0.7,0.1-1.4,0.2-2.2l2.2-12.8c1.4-7.8,4.5-11,12.4-11 c2.7,0,6.7,0.7,10.1,2l-4.8,27.5c0,0.3-0.1,0.9-0.8,0.9h-1.7C332.4,50.3,332.1,50.2,332.2,49.5z M313.5,23.2 c-0.1,0.3-0.2,0.4-0.6,0.5h-8.1L301,45.6c-0.1,0.4-0.1,0.8-0.1,1.1c0,1.2,0.6,1.5,2,1.5c4.1,0,5.2-0.4,7.2-1.2 c0.2-0.1,0.6-0.1,0.6,0.1l0.4,1.2c0.1,0.3,0.2,0.7-0.4,1.1c-2.1,1-6.1,1.7-8.4,1.7c-2.9,0-4.8-1.2-4.8-3.9c0-0.4,0.1-0.7,0.1-1.2 l3.8-22.3h-5c-0.5,0-0.5-0.4-0.5-0.5l0.3-1.9c0.1-0.4,0.5-0.5,0.6-0.5h5.1l1.1-6.6c0-0.3,0.3-0.7,0.8-0.8l1.9-0.3 c0.4-0.1,0.9,0.1,0.7,0.8l-1.1,6.9h8.2c0.3,0,0.6,0,0.4,0.5L313.5,23.2z M234,21.4l-12,15.9l6.3,13.7h-7.8c-0.5,0-1-0.4-1.2-0.7 l-3.1-6.7l-5.5,6.7c-0.4,0.4-1.2,0.7-1.7,0.7h-8l11.8-14.8l-6.4-14.1l7.4-1.1c0.4-0.1,0.9,0.1,1.1,0.6l3.6,9.1l6-8.8 c0.2-0.3,0.7-0.6,1-0.6H234z M197.8,49.8c0,0.2-0.1,0.5-0.4,0.5h-6.6c-0.3,0-0.4-0.4-0.4-0.5l-0.1-2.2c-4.7,2.2-8.4,3.4-11.8,3.4 c-4,0-5.5-2.3-5.5-6.1c0-1.2,0.1-2.2,0.3-3.4l3.5-19.5c0-0.3,0.2-0.8,1-1l7.2-1c0.3-0.1,0.7-0.1,0.7,0.5l-3.5,20.1 c-0.1,0.4-0.1,0.7-0.1,1c0,0.7,0.3,1,1.2,1c1.6,0,5.6-1.8,7.8-2.9L194,22c0-0.3,0.2-0.8,1-1l7.2-1c0.4-0.1,0.8-0.1,0.7,0.5 L197.8,49.8z M126.6,20c3.9,0,5.4,2.3,5.4,6c0,1-0.1,1.9-0.3,3.4l-3.4,19.3c-0.2,1.3-0.6,1.3-1.3,1.3h-6.3c-1,0-1.1-0.1-0.9-1.3 l3.2-18.7c0.1-0.4,0.1-0.7,0.1-0.9c0-0.6-0.3-0.9-1.1-0.9c-1.6,0-5.3,1.6-7.6,2.8l-3.1,17.7c-0.2,1.3-0.6,1.3-1.3,1.3H104 c-1,0-1.1-0.1-0.9-1.3l4.6-26.5c0.1-0.3,0.4-0.9,1.3-1l5.5-0.9c0.3-0.1,0.8-0.1,0.8,0.5l-0.1,2.6C119.7,21.2,123.3,20,126.6,20z M102.3,8c0.6,0,0.8,0,0.7,0.4l-1.3,7.6c-0.1,0.9-0.3,1-1,1.1L93.8,18C93,18,92.9,18,93.1,17.2l1.3-7.3c0.1-0.3,0.2-0.9,1-0.9 L102.3,8z M95.9,49.6c-0.3,1.3-0.7,1.3-1.3,1.4H88c-1,0-1.1-0.1-1-1.2l4.9-26.9c0-0.3,0.2-0.8,1-0.9l7.3-0.9 c0.4-0.1,0.8-0.1,0.7,0.5L95.9,49.6z M165.8,49.2c-0.2,1.3-0.6,1.3-1.4,1.5h-6.4c-1,0-1.1-0.1-0.9-1.3l5.9-33.3 c-2.3-0.6-6.4-1.1-9-1.1c-1.9,0-2.5,0.5-2.8,2l-0.8,4.3h6.9c0.3,0,0.7,0.1,0.6,0.6l-1.5,5.9c-0.1,0.4-0.2,0.4-0.6,0.4h-6.6 l-4.1,23.4c-0.7,3.9-2,6.7-6.2,10.9c-0.5,0.5-0.7,0.6-1.2,0.1l-4.5-4.2c-0.4-0.3-0.5-0.4,0-0.9c2.5-2.7,3-4.3,3.4-6.9l4-22.5H137 c-0.4,0-0.5-0.3-0.4-0.5l1-5.6c0.1-0.4,0.1-0.8,1-0.8h3.3l0.7-3.9c1.2-6.8,3.8-9.4,11.4-9.4c2.4,0,6.6,0.4,10.3,1.4l8.2-1.4 c0.4-0.1,0.7-0.1,0.6,0.5L165.8,49.2z M345.3,8.7c-1.7,0-3.1,1.3-3.1,3.1c0,1.7,1.3,3.1,3.1,3.1c1.7,0,3.1-1.3,3.1-3.1 C348.3,10.1,346.9,8.7,345.3,8.7z M345.3,15.5c-2.1,0-3.7-1.6-3.7-3.7c0-2.1,1.6-3.7,3.7-3.7c2.1,0,3.7,1.6,3.7,3.7 C349,13.9,347.3,15.5,345.3,15.5z M346.2,10.9v-0.1c0-0.3-0.1-0.4-0.5-0.4h-0.9l-0.2,1.5h0.9c0.5,0,0.6-0.1,0.7-0.5L346.2,10.9z M345.3,12.5h-0.8l-0.2,1.5h-0.8l0.7-4.4h1.6c0.9,0,1.3,0.4,1.3,1v0.3l-0.1,0.6c-0.1,0.6-0.3,0.8-0.8,1l0.8,1.6h-0.9L345.3,12.5z M58.5,41c0.8-0.1,1.3-0.9,1.1-1.8l-5.3-23.1c-0.2-0.8-1-1.3-1.8-1.1l-12.5,2.9c-0.8,0.2-1.3,1-1.1,1.8l5.3,23.1 c0.2,0.8,1,1.3,1.8,1.1L58.5,41z M56.8,44.1c0.6-0.6,0.4-0.9-0.4-0.6L46,45.8c-0.8,0.1-1.7,0.9-1.9,1.7L41,57.7 c-0.2,0.8,0.1,1,0.6,0.4L56.8,44.1z M36.6,60.6c0.8,0.1,1.6-0.3,1.9-1.1l3.8-12.2c0.2-0.8-0.2-1.7-1-1.9l-22.8-7 c-0.8-0.2-1.7,0.2-1.9,1l-3.8,12.2c-0.2,0.8,0.2,1.7,1,1.9L36.6,60.6z M11.1,48.8c0.1,0.8,0.5,0.8,0.7,0L15,38.5 c0.2-0.8,0-1.9-0.6-2.5l-7.3-7.8c-0.5-0.6-0.9-0.4-0.6,0.4L11.1,48.8z M6.9,23.1c-0.6,0.5-0.6,1.4-0.1,2.1l8.7,9.4 c0.6,0.6,1.5,0.6,2.1,0.1l17.4-16.2c0.6-0.6,0.6-1.5,0.1-2.1L26.4,7c-0.6-0.6-1.5-0.6-2.1-0.1L6.9,23.1z M42.3,42.5l-5-21.8 c-0.2-0.8-0.9-1-1.4-0.4L19.4,35.5c-0.6,0.6-0.4,1.2,0.4,1.4l21.5,6.6C42,43.7,42.5,43.3,42.3,42.5z M29.9,6.9 c-0.8-0.2-0.9,0.1-0.3,0.7l7.3,7.8c0.6,0.6,1.7,0.9,2.5,0.7l10.5-2.4c0.8-0.2,0.8-0.6,0-0.8L29.9,6.9z M65.4,40.3 c0.4,1.5-0.2,3.4-1.4,4.6L41.8,65.4c-0.9,0.7-2.2,1.2-3.4,1.2c-0.4,0-0.9,0-1.2-0.1l-27.1-8.4c-1.5-0.4-2.9-1.9-3.2-3.5L0.1,25.2 c-0.4-1.4,0.2-3.4,1.4-4.5L22.2,1.5c0.9-0.7,2.2-1.2,3.4-1.2c0.4,0,0.9,0,1.2,0.1l29,8.9c1.5,0.4,2.9,1.9,3.2,3.4L65.4,40.3z"></path> </g> </g> </g> </svg> 